<?xml version="1.0" standalone="no"?>
<!DOCTYPE svg PUBLIC "-//W3C//DTD SVG 20010904//EN"
 "http://www.w3.org/TR/2001/REC-SVG-20010904/DTD/svg10.dtd">
<svg version="1.0" xmlns="http://www.w3.org/2000/svg"
 width="314.000000pt" height="314.000000pt" viewBox="0 0 314.000000 314.000000"
 preserveAspectRatio="xMidYMid meet">
<metadata>
Created by potrace 1.11, written by Peter Selinger 2001-2013
</metadata>
<g transform="translate(0.000000,314.000000) scale(0.100000,-0.100000)"
fill="#000000" stroke="none">
<path d="M1385 3069 c-27 -4 -66 -10 -85 -12 -19 -3 -57 -11 -85 -17 -27 -6
-59 -13 -69 -16 -80 -16 -282 -100 -375 -156 -34 -21 -65 -38 -67 -38 -2 0
-49 -34 -104 -76 -218 -165 -389 -390 -502 -659 -19 -46 -48 -151 -69 -247
-35 -160 -33 -437 5 -599 41 -179 119 -357 224 -514 100 -150 335 -377 452
-437 14 -7 27 -15 30 -18 4 -4 53 -31 110 -61 92 -49 287 -117 385 -135 144
-26 216 -32 360 -29 174 4 194 6 335 37 522 114 979 521 1133 1008 57 181 72
278 72 460 -1 204 -17 303 -81 500 -29 85 -105 235 -172 335 -89 134 -272 317
-407 406 -154 103 -330 184 -485 224 -71 19 -75 19 -140 30 -25 4 -54 9 -65
12 -37 8 -349 10 -400 2z"/>
</g>
</svg>
