<?xml version="1.0" standalone="no"?>
<!DOCTYPE svg PUBLIC "-//W3C//DTD SVG 20010904//EN"
 "http://www.w3.org/TR/2001/REC-SVG-20010904/DTD/svg10.dtd">
<svg version="1.0" xmlns="http://www.w3.org/2000/svg"
 width="500.000000pt" height="500.000000pt" viewBox="0 0 500.000000 500.000000"
 preserveAspectRatio="xMidYMid meet">
<metadata>
Created by potrace 1.11, written by Peter Selinger 2001-2013
</metadata>
<g transform="translate(0.000000,500.000000) scale(0.100000,-0.100000)"
fill="#000000" stroke="none">
<path d="M2230 4979 c-878 -100 -1646 -659 -2004 -1457 -305 -678 -292 -1463
34 -2127 363 -739 1056 -1247 1872 -1371 145 -22 500 -30 640 -14 351 38 704
155 998 330 175 104 311 209 469 364 237 233 369 412 506 691 132 268 202 505
241 814 22 182 15 502 -15 680 -46 268 -112 475 -226 706 -376 764 -1108 1281
-1954 1380 -136 16 -436 18 -561 4z m549 -385 c388 -56 723 -197 1021 -430
370 -288 635 -688 748 -1129 60 -235 66 -282 66 -530 1 -253 -6 -312 -60 -530
-30 -119 -136 -405 -164 -440 -4 -5 -25 -41 -45 -80 -253 -466 -744 -853
-1260 -994 -253 -69 -395 -86 -650 -78 -206 7 -313 23 -504 76 -721 200 -1288
781 -1476 1512 -48 188 -65 319 -65 528 0 201 16 326 66 523 168 656 641 1191
1274 1442 157 61 398 123 550 139 102 11 401 6 499 -9z"/>
<path d="M1193 4081 c-90 -42 -157 -138 -156 -226 2 -109 116 -489 203 -673
28 -58 49 -106 48 -107 -2 -1 -48 -7 -102 -14 -211 -25 -367 -70 -521 -149
-114 -60 -185 -127 -211 -202 -28 -82 -25 -228 6 -298 24 -55 51 -82 83 -82
11 0 61 42 114 96 198 199 407 318 651 369 40 8 91 15 112 15 35 0 42 -5 76
-52 64 -90 127 -158 187 -204 52 -39 65 -44 112 -44 65 0 101 24 92 61 -4 13
-39 66 -77 118 -85 113 -135 197 -205 345 -137 288 -204 540 -225 848 -5 82
-14 158 -20 168 -27 51 -94 64 -167 31z"/>
<path d="M2875 4081 c-23 -10 -53 -32 -68 -50 -42 -50 -43 -86 -9 -203 17 -57
37 -137 44 -178 18 -107 16 -393 -5 -502 -14 -79 -22 -97 -86 -194 -77 -116
-169 -289 -205 -387 -26 -69 -76 -227 -72 -227 2 0 38 58 81 130 106 175 189
284 320 419 236 243 512 430 840 570 83 35 164 74 182 88 71 52 66 156 -10
217 -35 28 -46 31 -106 31 -59 0 -78 -5 -153 -42 -149 -74 -328 -201 -477
-339 -36 -33 -61 -50 -57 -39 4 11 16 71 27 135 33 190 25 451 -16 531 -30 57
-148 77 -230 40z"/>
<path d="M2216 4054 c-134 -32 -279 -139 -338 -250 -57 -105 -73 -250 -43
-369 46 -176 195 -384 365 -509 154 -114 225 -58 355 279 104 270 131 511 75
660 -32 82 -114 164 -189 188 -63 20 -144 21 -225 1z m136 -310 c43 -39 61
-101 66 -227 7 -182 -31 -307 -106 -350 -40 -24 -69 -17 -117 25 -51 44 -82
103 -106 199 -43 168 2 307 116 361 48 23 116 19 147 -8z"/>
<path d="M3875 3315 c-169 -36 -350 -151 -536 -338 -140 -142 -272 -317 -298
-399 -26 -78 31 -120 212 -158 461 -96 840 -85 1059 32 71 38 155 116 191 179
41 70 60 173 47 257 -32 196 -195 377 -385 427 -71 18 -207 18 -290 0z m188
-318 c87 -51 122 -158 75 -227 -105 -155 -642 -245 -737 -123 -25 31 -26 54
-5 94 38 74 133 153 263 218 148 75 314 91 404 38z"/>
<path d="M1704 2181 c-37 -22 -66 -79 -72 -141 -4 -47 66 -344 146 -618 l39
-133 -166 164 c-91 90 -181 172 -199 181 -68 35 -107 -14 -106 -134 1 -112 20
-149 258 -495 102 -148 147 -204 214 -268 65 -61 85 -69 102 -37 17 32 -2 74
-85 191 -69 98 -200 317 -193 324 5 5 162 -123 252 -204 80 -73 93 -80 114
-59 19 19 14 56 -29 214 -46 168 -111 491 -96 474 13 -14 196 -339 237 -420
55 -109 81 -140 105 -120 28 23 19 109 -24 222 -51 135 -306 721 -338 775 -29
49 -86 103 -111 103 -9 0 -31 -9 -48 -19z"/>
<path d="M2393 2065 c-126 -64 -190 -218 -180 -430 15 -285 141 -497 281 -471
46 9 112 69 143 129 30 59 42 159 23 182 -19 23 -35 18 -84 -25 -51 -44 -94
-56 -162 -45 -44 6 -45 7 -31 28 7 12 56 57 108 100 157 130 188 163 215 222
20 42 26 73 26 125 1 85 -22 133 -81 175 -38 26 -52 30 -124 33 -72 3 -88 0
-134 -23z m165 -229 c23 -12 21 -15 -91 -108 l-114 -96 9 51 c11 59 39 118 70
147 25 23 90 27 126 6z"/>
<path d="M2907 1980 c-20 -24 -43 -101 -117 -401 -95 -389 -104 -451 -67 -473
36 -22 68 34 147 264 65 191 78 219 111 252 45 43 97 62 144 54 l34 -7 -24
-56 c-38 -84 -41 -122 -15 -156 42 -53 90 -24 164 99 47 80 67 138 67 195 1
56 -11 80 -54 112 -63 47 -133 58 -206 32 l-41 -14 0 35 c0 26 -8 43 -29 65
-40 39 -81 39 -114 -1z"/>
<path d="M3382 1515 c-134 -62 -279 -285 -348 -535 -26 -91 -31 -184 -13 -224
49 -106 311 -7 478 181 67 75 127 198 143 291 11 64 10 82 -5 139 -28 106 -93
173 -167 173 -19 0 -59 -11 -88 -25z m72 -247 c9 -13 16 -43 16 -69 0 -135
-261 -356 -300 -254 -37 97 136 345 241 345 17 0 34 -8 43 -22z"/>
</g>
</svg>
