<svg xmlns="http://www.w3.org/2000/svg" xmlns:xlink="http://www.w3.org/1999/xlink" version="1.1" width="256" height="256" viewBox="0 0 256 256" xml:space="preserve">
<desc>Created with Fabric.js 1.7.22</desc>
<defs>
</defs>
<g transform="translate(128 128) scale(0.72 0.72)" style="">
	<g style="stroke: none; stroke-width: 0; stroke-dasharray: none; stroke-linecap: butt; stroke-linejoin: miter; stroke-miterlimit: 10; fill: none; fill-rule: nonzero; opacity: 1;" transform="translate(-175.05 -175.05000000000004) scale(3.89 3.89)">
	<path d="M 85.926 11.351 H 3.819 C 1.71 11.351 0 13.061 0 15.17 v 59.66 c 0 2.109 1.71 3.819 3.819 3.819 h 82.107 c 2.109 0 3.819 -1.71 3.819 -3.819 V 15.17 C 89.745 13.061 88.035 11.351 85.926 11.351 z" style="stroke: none; stroke-width: 1; stroke-dasharray: none; stroke-linecap: butt; stroke-linejoin: miter; stroke-miterlimit: 10; fill: rgb(236,239,241); fill-rule: nonzero; opacity: 1;" transform=" matrix(1 0 0 1 0 0) " stroke-linecap="round"/>
	<polygon points="44.87,56.75 68.07,78.65 86.18,78.65 84.05,18.51 43.43,51.58 " style="stroke: none; stroke-width: 1; stroke-dasharray: none; stroke-linecap: butt; stroke-linejoin: miter; stroke-miterlimit: 10; fill: rgb(207,216,220); fill-rule: nonzero; opacity: 1;" transform="  matrix(1 0 0 1 0 0) "/>
	<path d="M 86.181 11.351 h -2.006 l 0 0 h -2.522 l -36.78 33.742 L 8.147 11.401 v -0.05 H 8.093 H 5.571 H 3.819 C 1.71 11.351 0 13.061 0 15.17 v 59.66 c 0 2.109 1.71 3.819 3.819 3.819 h 4.328 V 23.061 l 36.725 33.692 l 36.98 -33.926 v 55.822 h 4.328 c 2.109 0 3.819 -1.71 3.819 -3.819 V 15.17 C 90 13.061 88.29 11.351 86.181 11.351 z" style="stroke: none; stroke-width: 1; stroke-dasharray: none; stroke-linecap: butt; stroke-linejoin: miter; stroke-miterlimit: 10; fill: rgb(45,128,196); fill-rule: nonzero; opacity: 1;" transform=" matrix(1 0 0 1 0 0) " stroke-linecap="round"/>
</g>
</g>
</svg>